<svg width="47" height="46" viewBox="0 0 47 46" fill="none" xmlns="http://www.w3.org/2000/svg">
<path fill-rule="evenodd" clip-rule="evenodd" d="M13.7729 0.1375C16.2166 0.025 16.9958 0 23.2208 0C29.4458 0 30.225 0.0270833 32.6666 0.1375C35.1083 0.247917 36.775 0.6375 38.2333 1.20208C39.7604 1.77917 41.1458 2.68125 42.2916 3.84792C43.4583 4.99167 44.3583 6.375 44.9333 7.90417C45.5 9.3625 45.8875 11.0292 46 13.4667C46.1125 15.9146 46.1375 16.6937 46.1375 22.9167C46.1375 29.1417 46.1104 29.9208 46 32.3646C45.8896 34.8021 45.5 36.4687 44.9333 37.9271C44.3583 39.4564 43.4568 40.8421 42.2916 41.9875C41.1458 43.1542 39.7604 44.0542 38.2333 44.6292C36.775 45.1958 35.1083 45.5833 32.6708 45.6958C30.225 45.8083 29.4458 45.8333 23.2208 45.8333C16.9958 45.8333 16.2166 45.8062 13.7729 45.6958C11.3354 45.5854 9.66872 45.1958 8.21039 44.6292C6.68106 44.0541 5.29543 43.1526 4.14997 41.9875C2.9841 40.8431 2.08188 39.4581 1.50622 37.9292C0.941638 36.4708 0.554138 34.8042 0.441638 32.3667C0.329138 29.9187 0.304138 29.1396 0.304138 22.9167C0.304138 16.6917 0.331221 15.9125 0.441638 13.4708C0.552055 11.0292 0.941638 9.3625 1.50622 7.90417C2.08273 6.37517 2.98564 4.99024 4.15205 3.84583C5.29589 2.68021 6.68012 1.77801 8.2083 1.20208C9.66664 0.6375 11.3333 0.25 13.7708 0.1375H13.7729ZM32.4812 4.2625C30.0646 4.15208 29.3396 4.12917 23.2208 4.12917C17.1021 4.12917 16.3771 4.15208 13.9604 4.2625C11.725 4.36458 10.5125 4.7375 9.70414 5.05208C8.63539 5.46875 7.8708 5.9625 7.06872 6.76458C6.3084 7.50427 5.72326 8.40475 5.35622 9.4C5.04164 10.2083 4.66872 11.4208 4.56664 13.6562C4.45622 16.0729 4.4333 16.7979 4.4333 22.9167C4.4333 29.0354 4.45622 29.7604 4.56664 32.1771C4.66872 34.4125 5.04164 35.625 5.35622 36.4333C5.72289 37.4271 6.30831 38.3292 7.06872 39.0687C7.8083 39.8292 8.71039 40.4146 9.70414 40.7813C10.5125 41.0958 11.725 41.4687 13.9604 41.5708C16.3771 41.6812 17.1 41.7042 23.2208 41.7042C29.3416 41.7042 30.0646 41.6812 32.4812 41.5708C34.7166 41.4687 35.9291 41.0958 36.7375 40.7813C37.8062 40.3646 38.5708 39.8708 39.3729 39.0687C40.1333 38.3292 40.7187 37.4271 41.0854 36.4333C41.4 35.625 41.7729 34.4125 41.875 32.1771C41.9854 29.7604 42.0083 29.0354 42.0083 22.9167C42.0083 16.7979 41.9854 16.0729 41.875 13.6562C41.7729 11.4208 41.4 10.2083 41.0854 9.4C40.6687 8.33125 40.175 7.56667 39.3729 6.76458C38.6332 6.00432 37.7327 5.41919 36.7375 5.05208C35.9291 4.7375 34.7166 4.36458 32.4812 4.2625V4.2625ZM20.2937 29.9812C21.9284 30.6617 23.7487 30.7536 25.4436 30.2411C27.1385 29.7286 28.6029 28.6436 29.5867 27.1713C30.5704 25.6991 31.0126 23.931 30.8376 22.169C30.6626 20.407 29.8812 18.7604 28.6271 17.5104C27.8275 16.7114 26.8608 16.0996 25.7965 15.7191C24.7322 15.3385 23.5967 15.1987 22.4718 15.3096C21.347 15.4206 20.2607 15.7795 19.2912 16.3607C18.3218 16.9418 17.4932 17.7307 16.8652 18.6705C16.2372 19.6103 15.8254 20.6777 15.6594 21.7958C15.4934 22.9138 15.5774 24.0548 15.9053 25.1365C16.2332 26.2182 16.7968 27.2138 17.5556 28.0515C18.3145 28.8892 19.2496 29.5483 20.2937 29.9812ZM14.8916 14.5875C15.9854 13.4937 17.284 12.626 18.7131 12.0341C20.1422 11.4421 21.6739 11.1374 23.2208 11.1374C24.7677 11.1374 26.2994 11.4421 27.7285 12.0341C29.1576 12.626 30.4562 13.4937 31.55 14.5875C32.6438 15.6813 33.5114 16.9798 34.1034 18.409C34.6953 19.8381 35 21.3698 35 22.9167C35 24.4635 34.6953 25.9953 34.1034 27.4244C33.5114 28.8535 32.6438 30.152 31.55 31.2458C29.3409 33.4549 26.3448 34.6959 23.2208 34.6959C20.0968 34.6959 17.1007 33.4549 14.8916 31.2458C12.6826 29.0368 11.4416 26.0407 11.4416 22.9167C11.4416 19.7926 12.6826 16.7965 14.8916 14.5875V14.5875ZM37.6125 12.8917C37.8835 12.636 38.1005 12.3285 38.2506 11.9874C38.4007 11.6464 38.4808 11.2787 38.4863 10.9061C38.4917 10.5335 38.4223 10.1636 38.2822 9.81835C38.1421 9.47307 37.9342 9.1594 37.6707 8.89591C37.4072 8.63243 37.0936 8.42449 36.7483 8.28441C36.403 8.14433 36.0331 8.07495 35.6605 8.08038C35.288 8.08581 34.9202 8.16595 34.5792 8.31603C34.2381 8.46612 33.9307 8.68311 33.675 8.95417C33.1777 9.48131 32.9055 10.1815 32.916 10.9061C32.9266 11.6307 33.2191 12.3227 33.7315 12.8351C34.244 13.3475 34.9359 13.6401 35.6605 13.6506C36.3851 13.6612 37.0853 13.3889 37.6125 12.8917V12.8917Z" fill="black"/>
</svg>
